<svg xmlns="http://www.w3.org/2000/svg" viewBox="0 0 512 512" fill="#1dbfa0">
  <path d="M490.8 188.7c-52-16.4-118-24.8-177.3-3.9-3.7 1.3-6.8-1.5-5.6-5.1 19.3-57.9 36.3-125.7 18.2-146.4-15-17.1-41.9-2.7-65.7 21.4-21.8 22.1-42.3 54.4-61.9 84.7-43.2 12.4-89.6 43.1-118.9 77.2-22.3 25.9-46.1 49.3-76.3 58.7-27.1 8.5-54.7 12-84 10.1-13.6-.9-20.9 14.4-10.5 23.3 29.8 25.5 86.8 55.4 153.2 49 53.6-5.1 98-34 133-72.3 14.9 14 36.2 38.3 64.9 44.9 28.7 6.6 62.1-1.3 92.4-20.9 20.2-13.1 36.9-30.8 52-50.5 11.2-14.5-1.5-34.6-13.5-30.2-14.5 5.3-30 11.8-46.1 17.5-11.8 4.2-24 5.3-36.2 1.6-16.9-5.1-30.3-17.1-41.7-30.6-20.6-24.4-44.5-47.5-73.4-55.8 49.8-16.4 102.1-14.5 147.2 2 12.5 4.6 23.3-8.8 12.3-16zM137.9 280.9c-8.9 11-20.4 20-33.8 25.1-13.5 5.2-28.7 5.6-42.6 1.6-5.8-1.7-8.1-9.2-3.8-13.6 8.5-8.8 20.3-13.3 32.5-13.8 14.3-.6 28.7 3 41.5 9.7 5.7 3 9.7 9.8 6.2 15z" />
</svg>
